<?xml version="1.0" encoding="UTF-8"?>
<svg xmlns="http://www.w3.org/2000/svg" xmlns:xlink="http://www.w3.org/1999/xlink" width="375pt" height="374.999991pt" viewBox="0 0 375 374.999991" version="1.2">
<defs>
<clipPath id="clip1">
  <path d="M 140.984375 88.832031 L 227.234375 88.832031 L 227.234375 238.546875 L 140.984375 238.546875 Z M 140.984375 88.832031 "/>
</clipPath>
</defs>
<g id="surface1">
<g clip-path="url(#clip1)" clip-rule="nonzero">
<path style=" stroke:none;fill-rule:nonzero;fill:rgb(49.409485%,85.099792%,34.118652%);fill-opacity:1;" d="M 184.109375 234.3125 C 162.65625 234.3125 145.207031 216.820312 145.207031 195.320312 C 145.207031 189.742188 146.355469 184.359375 148.621094 179.320312 L 148.652344 179.253906 C 149.070312 178.328125 158.949219 156.457031 167.011719 135.902344 L 167.050781 135.789062 C 167.25 135.179688 167.488281 134.574219 167.753906 133.988281 L 167.820312 133.824219 C 168.28125 132.625 168.8125 131.707031 169.390625 131.082031 L 169.554688 130.882812 C 172.929688 126.210938 178.371094 123.421875 184.109375 123.421875 C 189.847656 123.421875 195.289062 126.210938 198.667969 130.882812 L 198.828125 131.082031 C 199.40625 131.703125 199.933594 132.625 200.40625 133.851562 L 200.464844 133.988281 C 200.730469 134.574219 200.96875 135.179688 201.167969 135.789062 L 201.210938 135.902344 C 209.265625 156.457031 219.152344 178.328125 219.570312 179.253906 L 219.59375 179.3125 C 221.859375 184.359375 223.011719 189.742188 223.011719 195.320312 C 223.011719 216.820312 205.558594 234.3125 184.109375 234.3125 Z M 161.425781 103.871094 C 176.769531 103.503906 181.160156 114.394531 182.34375 119.164062 C 176.367188 119.378906 171.503906 117.953125 167.863281 114.914062 C 163.71875 111.457031 162.0625 106.621094 161.425781 103.871094 Z M 223.441406 177.574219 L 223.4375 177.558594 L 223.410156 177.5 C 223 176.585938 213.175781 154.847656 205.15625 134.40625 C 204.917969 133.6875 204.644531 132.980469 204.332031 132.296875 L 204.332031 132.292969 C 203.695312 130.648438 202.914062 129.304688 202.011719 128.300781 C 198.425781 123.398438 192.992188 120.203125 187.066406 119.394531 C 187.359375 115.917969 188.296875 112.40625 189.558594 109.210938 C 192.855469 100.863281 199.433594 95.03125 208.1875 92.980469 C 210.835938 92.359375 209.710938 88.273438 207.0625 88.890625 C 195.414062 91.621094 187.117188 100.949219 184.046875 112.070312 C 180.691406 105.707031 173.585938 98.453125 158.753906 99.789062 L 156.679688 99.972656 L 156.835938 102.058594 C 156.867188 102.457031 157.675781 111.886719 165.117188 118.136719 C 167.363281 120.019531 169.953125 121.394531 172.863281 122.273438 C 170.289062 123.789062 168.011719 125.828125 166.203125 128.300781 C 165.300781 129.304688 164.519531 130.648438 163.882812 132.289062 C 163.570312 132.980469 163.292969 133.691406 163.054688 134.40625 C 155.039062 154.847656 145.21875 176.585938 144.800781 177.511719 L 144.753906 177.617188 C 144.65625 177.835938 144.5625 178.050781 144.464844 178.273438 L 144.304688 178.640625 L 144.308594 178.644531 C 142.097656 183.929688 140.980469 189.53125 140.980469 195.320312 C 140.980469 219.15625 160.328125 238.546875 184.109375 238.546875 C 207.886719 238.546875 227.230469 219.15625 227.230469 195.320312 C 227.230469 189.136719 225.953125 183.167969 223.441406 177.574219 Z M 185.417969 181.554688 C 190.074219 182.902344 193.722656 185.933594 196 190.210938 C 197.28125 192.621094 200.929688 190.480469 199.652344 188.070312 C 196.871094 182.851562 192.207031 179.109375 186.542969 177.46875 C 183.925781 176.707031 182.804688 180.796875 185.417969 181.554688 Z M 197.621094 195.429688 C 197.703125 196.183594 197.746094 196.929688 197.75 197.683594 C 197.757812 198.792969 198.722656 199.855469 199.863281 199.800781 C 201.007812 199.753906 201.984375 198.875 201.980469 197.683594 C 201.972656 196.929688 201.933594 196.183594 201.847656 195.429688 C 201.777344 194.847656 201.65625 194.359375 201.230469 193.933594 C 200.859375 193.5625 200.257812 193.289062 199.730469 193.308594 C 198.695312 193.359375 197.480469 194.25 197.621094 195.429688 Z M 184.109375 174.9375 C 173.257812 174.9375 164.425781 183.785156 164.425781 194.664062 C 164.425781 205.535156 173.257812 214.386719 184.109375 214.386719 C 194.960938 214.386719 203.785156 205.535156 203.785156 194.664062 C 203.785156 183.785156 194.960938 174.9375 184.109375 174.9375 Z M 184.109375 218.621094 C 170.929688 218.621094 160.203125 207.871094 160.203125 194.664062 C 160.203125 181.453125 170.929688 170.703125 184.109375 170.703125 C 197.285156 170.703125 208.007812 181.453125 208.007812 194.664062 C 208.007812 207.871094 197.285156 218.621094 184.109375 218.621094 "/>
</g>
</g>
</svg>
